ISO-10303-21;
HEADER;
/* Generated by software containing ST-Developer
 * from STEP Tools, Inc. (www.steptools.com) 
 */

FILE_DESCRIPTION(
/* description */ (''),
/* implementation_level */ '2;1');

FILE_NAME(
/* name */ 'HDMI_captureur_top.step',
/* time_stamp */ '2026-09-11T17:57:48+02:00',
/* author */ (''),
/* organization */ (''),
/* preprocessor_version */ 'ST-DEVELOPER v20.2',
/* originating_system */ 'Autodesk Translation Framework v15.15.0.0',
/* authorisation */ '');

FILE_SCHEMA (('AUTOMOTIVE_DESIGN { 1 0 10303 214 3 1 1 }'));
ENDSEC;

DATA;
#10=MECHANICAL_DESIGN_GEOMETRIC_PRESENTATION_REPRESENTATION('',(#13),#346);
#11=SHAPE_REPRESENTATION_RELATIONSHIP('SRR','None',#353,#12);
#12=ADVANCED_BREP_SHAPE_REPRESENTATION('',(#14),#345);
#13=STYLED_ITEM('',(#363),#14);
#14=MANIFOLD_SOLID_BREP('Corps1',#198);
#15=FACE_BOUND('',#41,.T.);
#16=FACE_BOUND('',#42,.T.);
#17=PLANE('',#218);
#18=PLANE('',#219);
#19=PLANE('',#223);
#20=PLANE('',#224);
#21=PLANE('',#225);
#22=PLANE('',#226);
#23=FACE_OUTER_BOUND('',#32,.T.);
#24=FACE_OUTER_BOUND('',#33,.T.);
#25=FACE_OUTER_BOUND('',#34,.T.);
#26=FACE_OUTER_BOUND('',#35,.T.);
#27=FACE_OUTER_BOUND('',#36,.T.);
#28=FACE_OUTER_BOUND('',#37,.T.);
#29=FACE_OUTER_BOUND('',#38,.T.);
#30=FACE_OUTER_BOUND('',#39,.T.);
#31=FACE_OUTER_BOUND('',#40,.T.);
#32=EDGE_LOOP('',(#132,#133,#134,#135,#136,#137,#138,#139,#140,#141));
#33=EDGE_LOOP('',(#142,#143,#144,#145,#146,#147));
#34=EDGE_LOOP('',(#148,#149,#150,#151,#152));
#35=EDGE_LOOP('',(#153,#154,#155,#156));
#36=EDGE_LOOP('',(#157,#158,#159,#160,#161,#162));
#37=EDGE_LOOP('',(#163,#164,#165,#166,#167));
#38=EDGE_LOOP('',(#168,#169,#170,#171));
#39=EDGE_LOOP('',(#172,#173,#174,#175,#176,#177,#178,#179));
#40=EDGE_LOOP('',(#180,#181,#182,#183));
#41=EDGE_LOOP('',(#184));
#42=EDGE_LOOP('',(#185));
#43=CIRCLE('',#213,1.);
#44=CIRCLE('',#214,1.);
#45=CIRCLE('',#216,2.5);
#46=CIRCLE('',#217,2.5);
#47=CIRCLE('',#221,2.5);
#48=CIRCLE('',#222,2.5);
#49=LINE('',#290,#66);
#50=LINE('',#294,#67);
#51=LINE('',#298,#68);
#52=LINE('',#309,#69);
#53=LINE('',#313,#70);
#54=LINE('',#317,#71);
#55=LINE('',#319,#72);
#56=LINE('',#321,#73);
#57=LINE('',#322,#74);
#58=LINE('',#325,#75);
#59=LINE('',#326,#76);
#60=LINE('',#330,#77);
#61=LINE('',#334,#78);
#62=LINE('',#336,#79);
#63=LINE('',#337,#80);
#64=LINE('',#339,#81);
#65=LINE('',#340,#82);
#66=VECTOR('',#231,10.);
#67=VECTOR('',#234,10.);
#68=VECTOR('',#237,10.);
#69=VECTOR('',#238,10.);
#70=VECTOR('',#243,2.5);
#71=VECTOR('',#248,10.);
#72=VECTOR('',#249,10.);
#73=VECTOR('',#250,10.);
#74=VECTOR('',#251,10.);
#75=VECTOR('',#254,10.);
#76=VECTOR('',#255,10.);
#77=VECTOR('',#260,2.5);
#78=VECTOR('',#265,10.);
#79=VECTOR('',#266,10.);
#80=VECTOR('',#267,10.);
#81=VECTOR('',#270,10.);
#82=VECTOR('',#271,10.);
#83=B_SPLINE_CURVE_WITH_KNOTS('',3,(#280,#281,#282,#283),.UNSPECIFIED.,
 .F.,.F.,(4,4),(1.095214000796,1.16192449729014),.UNSPECIFIED.);
#84=B_SPLINE_CURVE_WITH_KNOTS('',3,(#285,#286,#287,#288),.UNSPECIFIED.,
 .F.,.F.,(4,4),(1.16192449729014,1.22863499378427),.UNSPECIFIED.);
#85=B_SPLINE_CURVE_WITH_KNOTS('',3,(#300,#301,#302,#303),.UNSPECIFIED.,
 .F.,.F.,(4,4),(1.0962327176568,1.16482167035712),.UNSPECIFIED.);
#86=B_SPLINE_CURVE_WITH_KNOTS('',3,(#305,#306,#307,#308),.UNSPECIFIED.,
 .F.,.F.,(4,4),(1.16482167035712,1.23341062305744),.UNSPECIFIED.);
#87=VERTEX_POINT('',#278);
#88=VERTEX_POINT('',#279);
#89=VERTEX_POINT('',#284);
#90=VERTEX_POINT('',#289);
#91=VERTEX_POINT('',#291);
#92=VERTEX_POINT('',#293);
#93=VERTEX_POINT('',#295);
#94=VERTEX_POINT('',#297);
#95=VERTEX_POINT('',#299);
#96=VERTEX_POINT('',#304);
#97=VERTEX_POINT('',#312);
#98=VERTEX_POINT('',#316);
#99=VERTEX_POINT('',#318);
#100=VERTEX_POINT('',#320);
#101=VERTEX_POINT('',#324);
#102=VERTEX_POINT('',#329);
#103=VERTEX_POINT('',#333);
#104=VERTEX_POINT('',#335);
#105=EDGE_CURVE('',#87,#88,#83,.T.);
#106=EDGE_CURVE('',#88,#89,#84,.T.);
#107=EDGE_CURVE('',#89,#90,#49,.T.);
#108=EDGE_CURVE('',#90,#91,#43,.T.);
#109=EDGE_CURVE('',#91,#92,#50,.T.);
#110=EDGE_CURVE('',#92,#93,#44,.T.);
#111=EDGE_CURVE('',#93,#94,#51,.T.);
#112=EDGE_CURVE('',#94,#95,#85,.T.);
#113=EDGE_CURVE('',#95,#96,#86,.T.);
#114=EDGE_CURVE('',#96,#87,#52,.T.);
#115=EDGE_CURVE('',#96,#94,#45,.T.);
#116=EDGE_CURVE('',#95,#97,#53,.T.);
#117=EDGE_CURVE('',#97,#97,#46,.T.);
#118=EDGE_CURVE('',#98,#92,#54,.T.);
#119=EDGE_CURVE('',#99,#98,#55,.T.);
#120=EDGE_CURVE('',#99,#100,#56,.T.);
#121=EDGE_CURVE('',#93,#100,#57,.T.);
#122=EDGE_CURVE('',#101,#91,#58,.T.);
#123=EDGE_CURVE('',#98,#101,#59,.T.);
#124=EDGE_CURVE('',#89,#87,#47,.T.);
#125=EDGE_CURVE('',#88,#102,#60,.T.);
#126=EDGE_CURVE('',#102,#102,#48,.T.);
#127=EDGE_CURVE('',#103,#90,#61,.T.);
#128=EDGE_CURVE('',#104,#103,#62,.T.);
#129=EDGE_CURVE('',#101,#104,#63,.T.);
#130=EDGE_CURVE('',#104,#99,#64,.T.);
#131=EDGE_CURVE('',#100,#103,#65,.T.);
#132=ORIENTED_EDGE('',*,*,#105,.T.);
#133=ORIENTED_EDGE('',*,*,#106,.T.);
#134=ORIENTED_EDGE('',*,*,#107,.T.);
#135=ORIENTED_EDGE('',*,*,#108,.T.);
#136=ORIENTED_EDGE('',*,*,#109,.T.);
#137=ORIENTED_EDGE('',*,*,#110,.T.);
#138=ORIENTED_EDGE('',*,*,#111,.T.);
#139=ORIENTED_EDGE('',*,*,#112,.T.);
#140=ORIENTED_EDGE('',*,*,#113,.T.);
#141=ORIENTED_EDGE('',*,*,#114,.T.);
#142=ORIENTED_EDGE('',*,*,#112,.F.);
#143=ORIENTED_EDGE('',*,*,#115,.F.);
#144=ORIENTED_EDGE('',*,*,#113,.F.);
#145=ORIENTED_EDGE('',*,*,#116,.T.);
#146=ORIENTED_EDGE('',*,*,#117,.T.);
#147=ORIENTED_EDGE('',*,*,#116,.F.);
#148=ORIENTED_EDGE('',*,*,#110,.F.);
#149=ORIENTED_EDGE('',*,*,#118,.F.);
#150=ORIENTED_EDGE('',*,*,#119,.F.);
#151=ORIENTED_EDGE('',*,*,#120,.T.);
#152=ORIENTED_EDGE('',*,*,#121,.F.);
#153=ORIENTED_EDGE('',*,*,#109,.F.);
#154=ORIENTED_EDGE('',*,*,#122,.F.);
#155=ORIENTED_EDGE('',*,*,#123,.F.);
#156=ORIENTED_EDGE('',*,*,#118,.T.);
#157=ORIENTED_EDGE('',*,*,#105,.F.);
#158=ORIENTED_EDGE('',*,*,#124,.F.);
#159=ORIENTED_EDGE('',*,*,#106,.F.);
#160=ORIENTED_EDGE('',*,*,#125,.T.);
#161=ORIENTED_EDGE('',*,*,#126,.T.);
#162=ORIENTED_EDGE('',*,*,#125,.F.);
#163=ORIENTED_EDGE('',*,*,#108,.F.);
#164=ORIENTED_EDGE('',*,*,#127,.F.);
#165=ORIENTED_EDGE('',*,*,#128,.F.);
#166=ORIENTED_EDGE('',*,*,#129,.F.);
#167=ORIENTED_EDGE('',*,*,#122,.T.);
#168=ORIENTED_EDGE('',*,*,#130,.F.);
#169=ORIENTED_EDGE('',*,*,#128,.T.);
#170=ORIENTED_EDGE('',*,*,#131,.F.);
#171=ORIENTED_EDGE('',*,*,#120,.F.);
#172=ORIENTED_EDGE('',*,*,#114,.F.);
#173=ORIENTED_EDGE('',*,*,#115,.T.);
#174=ORIENTED_EDGE('',*,*,#111,.F.);
#175=ORIENTED_EDGE('',*,*,#121,.T.);
#176=ORIENTED_EDGE('',*,*,#131,.T.);
#177=ORIENTED_EDGE('',*,*,#127,.T.);
#178=ORIENTED_EDGE('',*,*,#107,.F.);
#179=ORIENTED_EDGE('',*,*,#124,.T.);
#180=ORIENTED_EDGE('',*,*,#119,.T.);
#181=ORIENTED_EDGE('',*,*,#123,.T.);
#182=ORIENTED_EDGE('',*,*,#129,.T.);
#183=ORIENTED_EDGE('',*,*,#130,.T.);
#184=ORIENTED_EDGE('',*,*,#126,.F.);
#185=ORIENTED_EDGE('',*,*,#117,.F.);
#186=CYLINDRICAL_SURFACE('',#212,1.);
#187=CYLINDRICAL_SURFACE('',#215,2.5);
#188=CYLINDRICAL_SURFACE('',#220,2.5);
#189=ADVANCED_FACE('',(#23),#186,.T.);
#190=ADVANCED_FACE('',(#24),#187,.F.);
#191=ADVANCED_FACE('',(#25),#17,.T.);
#192=ADVANCED_FACE('',(#26),#18,.T.);
#193=ADVANCED_FACE('',(#27),#188,.F.);
#194=ADVANCED_FACE('',(#28),#19,.T.);
#195=ADVANCED_FACE('',(#29),#20,.T.);
#196=ADVANCED_FACE('',(#30),#21,.T.);
#197=ADVANCED_FACE('',(#31,#15,#16),#22,.F.);
#198=CLOSED_SHELL('',(#189,#190,#191,#192,#193,#194,#195,#196,#197));
#199=DERIVED_UNIT_ELEMENT(#201,1.);
#200=DERIVED_UNIT_ELEMENT(#348,-3.);
#201=(
MASS_UNIT()
NAMED_UNIT(*)
SI_UNIT(.KILO.,.GRAM.)
);
#202=DERIVED_UNIT((#199,#200));
#203=MEASURE_REPRESENTATION_ITEM('density measure',
POSITIVE_RATIO_MEASURE(7850.),#202);
#204=PROPERTY_DEFINITION_REPRESENTATION(#209,#206);
#205=PROPERTY_DEFINITION_REPRESENTATION(#210,#207);
#206=REPRESENTATION('material name',(#208),#345);
#207=REPRESENTATION('density',(#203),#345);
#208=DESCRIPTIVE_REPRESENTATION_ITEM('Acier','Acier');
#209=PROPERTY_DEFINITION('material property','material name',#355);
#210=PROPERTY_DEFINITION('material property','density of part',#355);
#211=AXIS2_PLACEMENT_3D('',#276,#227,#228);
#212=AXIS2_PLACEMENT_3D('',#277,#229,#230);
#213=AXIS2_PLACEMENT_3D('',#292,#232,#233);
#214=AXIS2_PLACEMENT_3D('',#296,#235,#236);
#215=AXIS2_PLACEMENT_3D('',#310,#239,#240);
#216=AXIS2_PLACEMENT_3D('',#311,#241,#242);
#217=AXIS2_PLACEMENT_3D('',#314,#244,#245);
#218=AXIS2_PLACEMENT_3D('',#315,#246,#247);
#219=AXIS2_PLACEMENT_3D('',#323,#252,#253);
#220=AXIS2_PLACEMENT_3D('',#327,#256,#257);
#221=AXIS2_PLACEMENT_3D('',#328,#258,#259);
#222=AXIS2_PLACEMENT_3D('',#331,#261,#262);
#223=AXIS2_PLACEMENT_3D('',#332,#263,#264);
#224=AXIS2_PLACEMENT_3D('',#338,#268,#269);
#225=AXIS2_PLACEMENT_3D('',#341,#272,#273);
#226=AXIS2_PLACEMENT_3D('',#342,#274,#275);
#227=DIRECTION('axis',(0.,0.,1.));
#228=DIRECTION('refdir',(1.,0.,0.));
#229=DIRECTION('center_axis',(3.63615573500313E-31,8.32667268468876E-17,
-1.));
#230=DIRECTION('ref_axis',(0.707106781186549,0.707106781186546,0.));
#231=DIRECTION('',(-3.63615573500313E-31,-8.32667268468876E-17,1.));
#232=DIRECTION('center_axis',(4.93038065763132E-32,-1.75162308040602E-46,
-1.));
#233=DIRECTION('ref_axis',(0.707106781186549,0.707106781186546,0.));
#234=DIRECTION('',(3.63615573500313E-31,8.32667268468876E-17,-1.));
#235=DIRECTION('center_axis',(1.30614439798838E-16,-4.64035706922195E-31,
1.));
#236=DIRECTION('ref_axis',(0.707106781186549,0.707106781186546,0.));
#237=DIRECTION('',(-3.63615573500313E-31,-8.32667268468876E-17,1.));
#238=DIRECTION('',(-3.63615573500313E-31,-8.32667268468876E-17,1.));
#239=DIRECTION('center_axis',(3.5527136788005E-15,1.,0.));
#240=DIRECTION('ref_axis',(-1.,3.5527136788005E-15,-4.93038065763132E-32));
#241=DIRECTION('center_axis',(-3.77475828372553E-15,-1.,-8.32667268468875E-17));
#242=DIRECTION('ref_axis',(-1.,3.77475828372553E-15,-4.93038065763132E-32));
#243=DIRECTION('',(-3.5527136788005E-15,-1.,0.));
#244=DIRECTION('center_axis',(-3.77475828372553E-15,-1.,-8.32667268468875E-17));
#245=DIRECTION('ref_axis',(-1.,3.77475828372553E-15,-4.93038065763132E-32));
#246=DIRECTION('center_axis',(-1.30614439798838E-16,4.64035706922195E-31,
-1.));
#247=DIRECTION('ref_axis',(-1.,3.77475828372553E-15,1.30614439798838E-16));
#248=DIRECTION('',(3.5527136788005E-15,1.,0.));
#249=DIRECTION('',(1.,-3.77475828372553E-15,-1.30614439798838E-16));
#250=DIRECTION('',(3.5527136788005E-15,1.,0.));
#251=DIRECTION('',(-1.,3.77475828372553E-15,1.30614439798838E-16));
#252=DIRECTION('center_axis',(1.,-3.5527136788005E-15,6.77927340424309E-32));
#253=DIRECTION('ref_axis',(3.63615573500313E-31,8.32667268468875E-17,-1.));
#254=DIRECTION('',(3.5527136788005E-15,1.,0.));
#255=DIRECTION('',(-3.63615573500313E-31,-8.32667268468875E-17,1.));
#256=DIRECTION('center_axis',(3.5527136788005E-15,1.,0.));
#257=DIRECTION('ref_axis',(-1.,3.5527136788005E-15,-4.93038065763132E-32));
#258=DIRECTION('center_axis',(-3.77475828372553E-15,-1.,-8.32667268468875E-17));
#259=DIRECTION('ref_axis',(-1.,3.77475828372553E-15,-4.93038065763132E-32));
#260=DIRECTION('',(-3.5527136788005E-15,-1.,0.));
#261=DIRECTION('center_axis',(-3.77475828372553E-15,-1.,-8.32667268468875E-17));
#262=DIRECTION('ref_axis',(-1.,3.77475828372553E-15,-4.93038065763132E-32));
#263=DIRECTION('center_axis',(-4.93038065763132E-32,1.75162308040602E-46,
1.));
#264=DIRECTION('ref_axis',(1.,-3.77475828372553E-15,4.93038065763132E-32));
#265=DIRECTION('',(1.,-3.77475828372553E-15,4.93038065763132E-32));
#266=DIRECTION('',(3.5527136788005E-15,1.,0.));
#267=DIRECTION('',(-1.,3.77475828372553E-15,-4.93038065763132E-32));
#268=DIRECTION('center_axis',(-1.,3.5527136788005E-15,-6.77927340424309E-32));
#269=DIRECTION('ref_axis',(-3.63615573500313E-31,-8.32667268468875E-17,
1.));
#270=DIRECTION('',(3.63615573500313E-31,8.32667268468875E-17,-1.));
#271=DIRECTION('',(-3.63615573500313E-31,-8.32667268468875E-17,1.));
#272=DIRECTION('center_axis',(3.73835752881979E-15,1.,8.32667268468876E-17));
#273=DIRECTION('ref_axis',(-1.,3.73835752881979E-15,-5.23347782920702E-32));
#274=DIRECTION('center_axis',(3.73835752881979E-15,1.,8.32667268468876E-17));
#275=DIRECTION('ref_axis',(-1.,3.73835752881979E-15,-5.23347782920702E-32));
#276=CARTESIAN_POINT('',(0.,0.,0.));
#277=CARTESIAN_POINT('Origin',(-23.6827394482374,19.6438280102068,47.5003945896186));
#278=CARTESIAN_POINT('',(-23.6827394482374,20.6438280102068,56.9317933107224));
#279=CARTESIAN_POINT('',(-23.5905495973359,20.6395694582698,57.6044375598602));
#280=CARTESIAN_POINT('Ctrl Pts',(-23.6827394482374,20.6438280102068,56.9317933107224));
#281=CARTESIAN_POINT('Ctrl Pts',(-23.6211659857422,20.6438280102068,57.1522028483064));
#282=CARTESIAN_POINT('Ctrl Pts',(-23.5905495973359,20.6395694582698,57.3820692382131));
#283=CARTESIAN_POINT('Ctrl Pts',(-23.5905495973359,20.6395694582698,57.6044375598602));
#284=CARTESIAN_POINT('',(-23.6827394482374,20.6438280102068,58.277081808998));
#285=CARTESIAN_POINT('Ctrl Pts',(-23.5905495973359,20.6395694582698,57.6044375598602));
#286=CARTESIAN_POINT('Ctrl Pts',(-23.5905495973359,20.6395694582698,57.8268058815073));
#287=CARTESIAN_POINT('Ctrl Pts',(-23.6211659857422,20.6438280102068,58.0566722714139));
#288=CARTESIAN_POINT('Ctrl Pts',(-23.6827394482373,20.6438280102068,58.277081808998));
#289=CARTESIAN_POINT('',(-23.6827394482374,20.6438280102068,77.5004328816215));
#290=CARTESIAN_POINT('',(-23.6827394482374,20.6438280102068,47.5003945896186));
#291=CARTESIAN_POINT('',(-22.6827394482374,19.6438280102068,77.5004328816215));
#292=CARTESIAN_POINT('Origin',(-23.6827394482374,19.6438280102068,77.5004328816215));
#293=CARTESIAN_POINT('',(-22.6827394482374,19.6438280102068,-42.4997202863899));
#294=CARTESIAN_POINT('',(-22.6827394482374,19.6438280102068,47.5003945896186));
#295=CARTESIAN_POINT('',(-23.6827394482374,20.6438280102068,-42.4997202863899));
#296=CARTESIAN_POINT('Origin',(-23.6827394482374,19.6438280102068,-42.4997202863899));
#297=CARTESIAN_POINT('',(-23.6827394482374,20.6438280102068,-23.3083784331201));
#298=CARTESIAN_POINT('',(-23.6827394482374,20.6438280102068,47.5003945896186));
#299=CARTESIAN_POINT('',(-23.5853052634629,20.6390699806026,-22.6172362599679));
#300=CARTESIAN_POINT('Ctrl Pts',(-23.6827394482374,20.6438280102068,-23.3083784331201));
#301=CARTESIAN_POINT('Ctrl Pts',(-23.617718423708,20.6438280102068,-23.0823507113669));
#302=CARTESIAN_POINT('Ctrl Pts',(-23.5853052634629,20.6390699806026,-22.8458661023023));
#303=CARTESIAN_POINT('Ctrl Pts',(-23.5853052634629,20.6390699806026,-22.6172362599679));
#304=CARTESIAN_POINT('',(-23.6827394482374,20.6438280102068,-21.9260940868157));
#305=CARTESIAN_POINT('Ctrl Pts',(-23.5853052634629,20.6390699806026,-22.6172362599679));
#306=CARTESIAN_POINT('Ctrl Pts',(-23.5853052634629,20.6390699806026,-22.3886064176335));
#307=CARTESIAN_POINT('Ctrl Pts',(-23.617718423708,20.6438280102068,-22.1521218085689));
#308=CARTESIAN_POINT('Ctrl Pts',(-23.6827394482373,20.6438280102068,-21.9260940868157));
#309=CARTESIAN_POINT('',(-23.6827394482374,20.6438280102068,47.5003945896186));
#310=CARTESIAN_POINT('Origin',(-26.0853052634629,15.6438280102068,-22.6172362599679));
#311=CARTESIAN_POINT('Origin',(-26.0853052634629,20.6438280102068,-22.6172362599679));
#312=CARTESIAN_POINT('',(-23.5853052634629,15.6438280102068,-22.6172362599679));
#313=CARTESIAN_POINT('',(-23.5853052634629,15.6438280102068,-22.6172362599679));
#314=CARTESIAN_POINT('Origin',(-26.0853052634629,15.6438280102068,-22.6172362599679));
#315=CARTESIAN_POINT('Origin',(-22.6827394482374,15.6438280102068,-42.4997202863899));
#316=CARTESIAN_POINT('',(-22.6827394482374,15.6438280102068,-42.4997202863899));
#317=CARTESIAN_POINT('',(-22.6827394482374,15.6438280102068,-42.4997202863899));
#318=CARTESIAN_POINT('',(-90.6827569859637,15.643828010207,-42.4997202863899));
#319=CARTESIAN_POINT('',(-90.6827569859637,15.643828010207,-42.4997202863899));
#320=CARTESIAN_POINT('',(-90.6827569859636,20.643828010207,-42.4997202863899));
#321=CARTESIAN_POINT('',(-90.6827569859637,15.643828010207,-42.4997202863899));
#322=CARTESIAN_POINT('',(-90.6827569859636,20.643828010207,-42.4997202863899));
#323=CARTESIAN_POINT('Origin',(-22.6827394482374,15.6438280102067,77.5004328816215));
#324=CARTESIAN_POINT('',(-22.6827394482374,15.6438280102068,77.5004328816215));
#325=CARTESIAN_POINT('',(-22.6827394482374,15.6438280102068,77.5004328816215));
#326=CARTESIAN_POINT('',(-22.6827394482374,15.6438280102068,-42.4997202863899));
#327=CARTESIAN_POINT('Origin',(-26.0905495973359,15.6438280102068,57.6044375598602));
#328=CARTESIAN_POINT('Origin',(-26.0905495973359,20.6438280102068,57.6044375598602));
#329=CARTESIAN_POINT('',(-23.5905495973359,15.6438280102068,57.6044375598602));
#330=CARTESIAN_POINT('',(-23.5905495973359,15.6438280102068,57.6044375598602));
#331=CARTESIAN_POINT('Origin',(-26.0905495973359,15.6438280102068,57.6044375598602));
#332=CARTESIAN_POINT('Origin',(-90.6827569859637,15.643828010207,77.5004328816215));
#333=CARTESIAN_POINT('',(-90.6827569859636,20.643828010207,77.5004328816215));
#334=CARTESIAN_POINT('',(-22.6827394482374,20.6438280102068,77.5004328816215));
#335=CARTESIAN_POINT('',(-90.6827569859637,15.643828010207,77.5004328816215));
#336=CARTESIAN_POINT('',(-90.6827569859637,15.643828010207,77.5004328816215));
#337=CARTESIAN_POINT('',(-22.6827394482374,15.6438280102068,77.5004328816215));
#338=CARTESIAN_POINT('Origin',(-90.6827569859637,15.643828010207,-42.4997202863899));
#339=CARTESIAN_POINT('',(-90.6827569859637,15.643828010207,77.5004328816215));
#340=CARTESIAN_POINT('',(-90.6827569859636,20.643828010207,77.5004328816215));
#341=CARTESIAN_POINT('Origin',(-56.6827482171005,20.6438280102069,17.5003562976158));
#342=CARTESIAN_POINT('Origin',(-56.6827482171005,15.6438280102069,17.5003562976158));
#343=UNCERTAINTY_MEASURE_WITH_UNIT(LENGTH_MEASURE(0.01),#347,
'DISTANCE_ACCURACY_VALUE',
'Maximum model space distance between geometric entities at asserted c
onnectivities');
#344=UNCERTAINTY_MEASURE_WITH_UNIT(LENGTH_MEASURE(0.01),#347,
'DISTANCE_ACCURACY_VALUE',
'Maximum model space distance between geometric entities at asserted c
onnectivities');
#345=(
GEOMETRIC_REPRESENTATION_CONTEXT(3)
GLOBAL_UNCERTAINTY_ASSIGNED_CONTEXT((#343))
GLOBAL_UNIT_ASSIGNED_CONTEXT((#347,#349,#350))
REPRESENTATION_CONTEXT('','3D')
);
#346=(
GEOMETRIC_REPRESENTATION_CONTEXT(3)
GLOBAL_UNCERTAINTY_ASSIGNED_CONTEXT((#344))
GLOBAL_UNIT_ASSIGNED_CONTEXT((#347,#349,#350))
REPRESENTATION_CONTEXT('','3D')
);
#347=(
LENGTH_UNIT()
NAMED_UNIT(*)
SI_UNIT(.MILLI.,.METRE.)
);
#348=(
LENGTH_UNIT()
NAMED_UNIT(*)
SI_UNIT($,.METRE.)
);
#349=(
NAMED_UNIT(*)
PLANE_ANGLE_UNIT()
SI_UNIT($,.RADIAN.)
);
#350=(
NAMED_UNIT(*)
SI_UNIT($,.STERADIAN.)
SOLID_ANGLE_UNIT()
);
#351=SHAPE_DEFINITION_REPRESENTATION(#352,#353);
#352=PRODUCT_DEFINITION_SHAPE('',$,#355);
#353=SHAPE_REPRESENTATION('',(#211),#345);
#354=PRODUCT_DEFINITION_CONTEXT('part definition',#359,'design');
#355=PRODUCT_DEFINITION('2026-09-11-17-57-48-312','HDMI_captureur_top',
#356,#354);
#356=PRODUCT_DEFINITION_FORMATION('',$,#361);
#357=PRODUCT_RELATED_PRODUCT_CATEGORY('HDMI_captureur_top',
'HDMI_captureur_top',(#361));
#358=APPLICATION_PROTOCOL_DEFINITION('international standard',
'automotive_design',2009,#359);
#359=APPLICATION_CONTEXT(
'Core Data for Automotive Mechanical Design Process');
#360=PRODUCT_CONTEXT('part definition',#359,'mechanical');
#361=PRODUCT('2026-09-11-17-57-48-312','HDMI_captureur_top',$,(#360));
#362=PRESENTATION_STYLE_ASSIGNMENT((#364));
#363=PRESENTATION_STYLE_ASSIGNMENT((#365));
#364=SURFACE_STYLE_USAGE(.BOTH.,#366);
#365=SURFACE_STYLE_USAGE(.BOTH.,#367);
#366=SURFACE_SIDE_STYLE('',(#368));
#367=SURFACE_SIDE_STYLE('',(#369));
#368=SURFACE_STYLE_FILL_AREA(#370);
#369=SURFACE_STYLE_FILL_AREA(#371);
#370=FILL_AREA_STYLE('Acier - Satin\X\E9',(#372));
#371=FILL_AREA_STYLE('Plastique - Mat (noir)',(#373));
#372=FILL_AREA_STYLE_COLOUR('Acier - Satin\X\E9',#374);
#373=FILL_AREA_STYLE_COLOUR('Plastique - Mat (noir)',#375);
#374=COLOUR_RGB('Acier - Satin\X\E9',0.627450980392157,0.627450980392157,
0.627450980392157);
#375=COLOUR_RGB('Plastique - Mat (noir)',0.0980392156862745,0.0980392156862745,
0.0980392156862745);
ENDSEC;
END-ISO-10303-21;
